<svg id="svg" version="1.1" xmlns="http://www.w3.org/2000/svg" xmlns:xlink="http://www.w3.org/1999/xlink" width="400" height="400" viewBox="0, 0, 400,400"><g id="svgg"><path id="path0" d="M208.473 6.292 C 208.587 7.268,208.867 7.453,211.108 8.038 C 212.488 8.397,213.928 8.964,214.308 9.298 C 214.689 9.632,215.450 10.038,216.000 10.201 C 221.020 11.682,228.811 19.351,232.291 26.235 C 240.861 43.190,233.919 63.187,216.232 72.490 C 214.675 73.309,213.031 73.984,212.580 73.990 C 211.732 74.000,208.400 75.966,208.400 76.455 C 208.400 76.607,209.525 76.819,210.900 76.926 C 214.649 77.216,224.459 78.675,225.600 79.111 C 226.150 79.321,227.860 79.704,229.400 79.962 C 230.940 80.219,233.280 80.782,234.600 81.211 C 243.674 84.162,247.652 85.608,251.000 87.172 C 254.869 88.979,259.556 91.333,261.400 92.395 C 262.500 93.029,263.670 93.679,264.000 93.840 C 264.330 94.001,265.320 94.614,266.200 95.202 C 267.080 95.790,268.610 96.793,269.600 97.431 C 271.298 98.525,277.167 102.758,277.600 103.200 C 277.710 103.313,278.450 103.889,279.244 104.480 C 281.297 106.009,284.000 108.663,284.000 109.150 C 284.000 109.377,284.628 109.860,285.395 110.224 C 286.800 110.891,293.119 117.388,297.459 122.626 C 302.133 128.269,306.840 135.294,309.636 140.800 C 310.363 142.230,311.158 143.670,311.404 144.000 C 311.650 144.330,312.445 145.950,313.171 147.600 C 316.590 155.371,317.581 157.857,318.274 160.400 C 318.604 161.610,319.032 162.792,319.226 163.028 C 319.420 163.263,319.862 164.703,320.208 166.228 C 320.555 167.752,321.092 169.720,321.402 170.600 C 321.712 171.480,322.154 173.492,322.382 175.072 C 322.611 176.652,322.976 178.411,323.193 178.981 C 323.409 179.551,323.769 182.038,323.993 184.509 C 324.216 186.979,324.517 189.720,324.660 190.600 L 324.922 192.200 325.389 190.163 C 325.647 189.042,326.229 187.512,326.683 186.763 C 327.137 186.013,327.645 184.952,327.811 184.405 C 329.336 179.394,339.658 169.333,345.062 167.591 C 345.908 167.319,346.835 166.909,347.122 166.681 C 348.511 165.576,354.262 164.660,360.000 164.630 C 366.418 164.597,368.312 164.952,374.876 167.424 C 376.181 167.915,378.438 169.283,381.600 171.499 C 385.484 174.221,391.503 181.637,392.470 184.889 C 392.749 185.830,393.321 186.881,393.741 187.225 C 394.246 187.640,394.570 188.550,394.702 189.925 C 394.882 191.793,394.998 192.000,395.861 192.000 L 396.820 192.000 396.710 185.700 C 396.602 179.527,396.582 179.397,395.708 179.273 C 394.825 179.148,394.816 179.074,394.708 171.273 C 394.601 163.488,394.590 163.399,393.714 163.274 C 392.879 163.155,392.822 162.928,392.714 159.274 C 392.606 155.620,392.550 155.393,391.714 155.274 C 390.879 155.155,390.822 154.928,390.714 151.274 C 390.606 147.620,390.550 147.393,389.714 147.274 C 388.879 147.155,388.822 146.928,388.714 143.274 C 388.607 139.624,388.549 139.393,387.717 139.274 C 386.913 139.160,386.824 138.892,386.717 136.274 C 386.610 133.640,386.525 133.389,385.700 133.272 C 384.906 133.159,384.800 132.913,384.800 131.172 C 384.800 129.335,384.731 129.200,383.800 129.200 C 382.822 129.200,382.800 129.133,382.800 126.200 C 382.800 123.285,382.772 123.200,381.822 123.200 C 380.939 123.200,380.832 123.015,380.722 121.300 C 380.618 119.679,380.468 119.381,379.700 119.272 C 378.906 119.159,378.800 118.913,378.800 117.172 C 378.800 115.335,378.731 115.200,377.800 115.200 C 376.867 115.200,376.800 115.067,376.800 113.200 C 376.800 111.345,376.729 111.200,375.822 111.200 C 374.939 111.200,374.832 111.015,374.722 109.300 C 374.618 107.679,374.468 107.381,373.700 107.272 C 372.906 107.159,372.800 106.913,372.800 105.172 C 372.800 103.347,372.727 103.200,371.822 103.200 C 370.939 103.200,370.832 103.015,370.722 101.300 C 370.618 99.679,370.468 99.381,369.700 99.272 C 369.049 99.180,368.800 98.876,368.800 98.172 C 368.800 97.402,368.592 97.200,367.800 97.200 C 366.867 97.200,366.800 97.067,366.800 95.200 C 366.800 93.333,366.733 93.200,365.800 93.200 C 365.000 93.200,364.800 93.000,364.800 92.200 C 364.800 91.400,364.600 91.200,363.800 91.200 C 362.867 91.200,362.800 91.067,362.800 89.200 C 362.800 87.333,362.733 87.200,361.800 87.200 C 361.000 87.200,360.800 87.000,360.800 86.200 C 360.800 85.406,360.599 85.200,359.822 85.200 C 358.939 85.200,358.832 85.015,358.722 83.300 C 358.618 81.679,358.468 81.381,357.700 81.272 C 357.049 81.180,356.800 80.876,356.800 80.172 C 356.800 79.402,356.592 79.200,355.800 79.200 C 355.000 79.200,354.800 79.000,354.800 78.200 C 354.800 77.400,354.600 77.200,353.800 77.200 C 353.000 77.200,352.800 77.000,352.800 76.200 C 352.800 75.406,352.599 75.200,351.822 75.200 C 350.939 75.200,350.832 75.015,350.722 73.300 C 350.619 71.696,350.464 71.381,349.725 71.275 C 349.179 71.198,348.802 70.821,348.725 70.275 C 348.646 69.721,348.270 69.353,347.700 69.272 C 347.049 69.180,346.800 68.876,346.800 68.172 C 346.800 67.402,346.592 67.200,345.800 67.200 C 345.000 67.200,344.800 67.000,344.800 66.200 C 344.800 65.400,344.600 65.200,343.800 65.200 C 343.000 65.200,342.800 65.000,342.800 64.200 C 342.800 63.400,342.600 63.200,341.800 63.200 C 341.000 63.200,340.800 63.000,340.800 62.200 C 340.800 61.400,340.600 61.200,339.800 61.200 C 339.000 61.200,338.800 61.000,338.800 60.200 C 338.800 59.400,338.600 59.200,337.800 59.200 C 337.000 59.200,336.800 59.000,336.800 58.200 C 336.800 57.400,336.600 57.200,335.800 57.200 C 335.000 57.200,334.800 57.000,334.800 56.200 C 334.800 55.408,334.598 55.200,333.828 55.200 C 333.124 55.200,332.820 54.951,332.728 54.300 C 332.647 53.730,332.279 53.354,331.725 53.275 C 331.179 53.198,330.802 52.821,330.725 52.275 C 330.619 51.536,330.304 51.381,328.700 51.278 C 326.985 51.168,326.800 51.061,326.800 50.178 C 326.800 49.401,326.594 49.200,325.800 49.200 C 325.000 49.200,324.800 49.000,324.800 48.200 C 324.800 47.400,324.600 47.200,323.800 47.200 C 323.000 47.200,322.800 47.000,322.800 46.200 C 322.800 45.408,322.598 45.200,321.828 45.200 C 321.124 45.200,320.820 44.951,320.728 44.300 C 320.619 43.532,320.321 43.382,318.700 43.278 C 316.985 43.168,316.800 43.061,316.800 42.178 C 316.800 41.401,316.594 41.200,315.800 41.200 C 315.000 41.200,314.800 41.000,314.800 40.200 C 314.800 39.408,314.598 39.200,313.828 39.200 C 313.124 39.200,312.820 38.951,312.728 38.300 C 312.619 37.534,312.321 37.382,310.725 37.279 C 309.144 37.177,308.831 37.021,308.725 36.279 C 308.619 35.536,308.307 35.381,306.700 35.278 C 304.985 35.168,304.800 35.061,304.800 34.178 C 304.800 33.485,304.579 33.200,304.043 33.200 C 303.574 33.200,303.193 32.828,303.041 32.222 C 302.830 31.381,302.530 31.227,300.898 31.122 C 299.517 31.033,299.033 30.847,299.121 30.437 C 299.292 29.643,298.447 29.213,296.700 29.206 C 295.368 29.201,295.200 29.088,295.200 28.200 C 295.200 27.267,295.067 27.200,293.200 27.200 C 291.333 27.200,291.200 27.133,291.200 26.200 C 291.200 25.267,291.067 25.200,289.200 25.200 C 287.333 25.200,287.200 25.133,287.200 24.200 C 287.200 23.267,287.067 23.200,285.200 23.200 C 283.333 23.200,283.200 23.133,283.200 22.200 C 283.200 21.269,283.065 21.200,281.228 21.200 C 279.487 21.200,279.241 21.094,279.128 20.300 C 279.019 19.530,278.722 19.382,277.081 19.277 C 275.471 19.174,275.103 18.997,274.791 18.177 C 274.451 17.281,274.207 17.200,271.853 17.200 C 269.449 17.200,269.271 17.137,269.036 16.200 C 268.798 15.254,268.635 15.200,266.020 15.200 C 263.458 15.200,263.246 15.134,263.128 14.300 C 263.011 13.476,262.760 13.390,260.139 13.283 C 257.478 13.175,257.261 13.098,257.032 12.183 C 256.790 11.221,256.699 11.200,252.792 11.200 C 248.801 11.200,248.800 11.200,248.800 10.200 L 248.800 9.200 243.828 9.200 C 238.976 9.200,238.853 9.178,238.728 8.300 C 238.603 7.419,238.476 7.398,232.700 7.289 L 226.800 7.179 226.800 6.189 L 226.800 5.200 217.573 5.200 L 208.347 5.200 208.473 6.292 M55.200 68.172 C 55.200 68.876,54.951 69.180,54.300 69.272 C 53.730 69.353,53.354 69.721,53.275 70.275 C 53.198 70.821,52.821 71.198,52.275 71.275 C 51.536 71.381,51.381 71.696,51.278 73.300 C 51.168 75.015,51.061 75.200,50.178 75.200 C 49.401 75.200,49.200 75.406,49.200 76.200 C 49.200 77.000,49.000 77.200,48.200 77.200 C 47.400 77.200,47.200 77.400,47.200 78.200 C 47.200 79.000,47.000 79.200,46.200 79.200 C 45.408 79.200,45.200 79.402,45.200 80.172 C 45.200 80.876,44.951 81.180,44.300 81.272 C 43.532 81.381,43.382 81.679,43.278 83.300 C 43.168 85.015,43.061 85.200,42.178 85.200 C 41.401 85.200,41.200 85.406,41.200 86.200 C 41.200 87.000,41.000 87.200,40.200 87.200 C 39.267 87.200,39.200 87.333,39.200 89.200 C 39.200 91.067,39.133 91.200,38.200 91.200 C 37.400 91.200,37.200 91.400,37.200 92.200 C 37.200 93.000,37.000 93.200,36.200 93.200 C 35.267 93.200,35.200 93.333,35.200 95.200 C 35.200 97.067,35.133 97.200,34.200 97.200 C 33.408 97.200,33.200 97.402,33.200 98.172 C 33.200 98.876,32.951 99.180,32.300 99.272 C 31.532 99.381,31.382 99.679,31.278 101.300 C 31.168 103.015,31.061 103.200,30.178 103.200 C 29.271 103.200,29.200 103.345,29.200 105.200 C 29.200 107.067,29.133 107.200,28.200 107.200 C 27.267 107.200,27.200 107.333,27.200 109.200 C 27.200 111.067,27.133 111.200,26.200 111.200 C 25.267 111.200,25.200 111.333,25.200 113.200 C 25.200 115.067,25.133 115.200,24.200 115.200 C 23.267 115.200,23.200 115.333,23.200 117.200 C 23.200 119.067,23.133 119.200,22.200 119.200 C 21.267 119.200,21.200 119.333,21.200 121.200 C 21.200 123.067,21.133 123.200,20.200 123.200 C 19.222 123.200,19.200 123.267,19.200 126.200 C 19.200 129.133,19.178 129.200,18.200 129.200 C 17.269 129.200,17.200 129.335,17.200 131.172 C 17.200 132.913,17.094 133.159,16.300 133.272 C 15.475 133.389,15.390 133.640,15.283 136.274 C 15.176 138.892,15.087 139.160,14.283 139.274 C 13.451 139.393,13.393 139.623,13.286 143.300 C 13.173 147.147,13.158 147.200,12.186 147.200 C 11.204 147.200,11.200 147.216,11.200 151.200 L 11.200 155.200 10.200 155.200 C 9.200 155.200,9.200 155.202,9.200 159.172 C 9.200 162.987,9.164 163.149,8.300 163.272 C 7.406 163.399,7.399 163.449,7.292 171.300 L 7.183 179.200 6.192 179.200 L 5.200 179.200 5.200 200.000 L 5.200 220.800 6.200 220.800 L 7.200 220.800 7.200 227.800 L 7.200 234.800 8.200 234.800 L 9.200 234.800 9.200 239.800 L 9.200 244.800 10.200 244.800 L 11.200 244.800 11.200 248.800 C 11.200 252.784,11.204 252.800,12.186 252.800 C 13.158 252.800,13.173 252.853,13.286 256.700 C 13.393 260.377,13.451 260.607,14.283 260.726 C 15.087 260.840,15.176 261.108,15.283 263.726 C 15.390 266.360,15.475 266.611,16.300 266.728 C 17.094 266.841,17.200 267.087,17.200 268.828 C 17.200 270.665,17.269 270.800,18.200 270.800 C 19.178 270.800,19.200 270.867,19.200 273.800 C 19.200 276.733,19.222 276.800,20.200 276.800 C 21.133 276.800,21.200 276.933,21.200 278.800 C 21.200 280.667,21.267 280.800,22.200 280.800 C 23.133 280.800,23.200 280.933,23.200 282.800 C 23.200 284.667,23.267 284.800,24.200 284.800 C 25.133 284.800,25.200 284.933,25.200 286.800 C 25.200 288.667,25.267 288.800,26.200 288.800 C 27.133 288.800,27.200 288.933,27.200 290.800 C 27.200 292.667,27.267 292.800,28.200 292.800 C 29.133 292.800,29.200 292.933,29.200 294.800 C 29.200 296.655,29.271 296.800,30.178 296.800 C 31.061 296.800,31.168 296.985,31.278 298.700 C 31.382 300.321,31.532 300.619,32.300 300.728 C 32.951 300.820,33.200 301.124,33.200 301.828 C 33.200 302.598,33.408 302.800,34.200 302.800 C 35.133 302.800,35.200 302.933,35.200 304.800 C 35.200 306.667,35.267 306.800,36.200 306.800 C 37.000 306.800,37.200 307.000,37.200 307.800 C 37.200 308.600,37.400 308.800,38.200 308.800 C 39.133 308.800,39.200 308.933,39.200 310.800 C 39.200 312.667,39.267 312.800,40.200 312.800 C 41.000 312.800,41.200 313.000,41.200 313.800 C 41.200 314.594,41.401 314.800,42.178 314.800 C 43.061 314.800,43.168 314.985,43.278 316.700 C 43.382 318.321,43.532 318.619,44.300 318.728 C 44.951 318.820,45.200 319.124,45.200 319.828 C 45.200 320.598,45.408 320.800,46.200 320.800 C 47.000 320.800,47.200 321.000,47.200 321.800 C 47.200 322.600,47.400 322.800,48.200 322.800 C 49.000 322.800,49.200 323.000,49.200 323.800 C 49.200 324.594,49.401 324.800,50.178 324.800 C 51.061 324.800,51.168 324.985,51.278 326.700 C 51.381 328.304,51.536 328.619,52.275 328.725 C 52.821 328.802,53.198 329.179,53.275 329.725 C 53.354 330.279,53.730 330.647,54.300 330.728 C 55.445 330.890,55.653 327.164,54.567 325.963 C 54.218 325.578,53.778 324.029,53.589 322.520 C 53.399 321.011,52.965 319.242,52.625 318.588 C 51.762 316.934,51.743 307.789,52.599 305.742 C 52.928 304.954,53.372 303.225,53.585 301.901 C 53.798 300.577,54.231 299.202,54.547 298.847 C 54.862 298.491,55.292 297.570,55.502 296.800 C 55.861 295.482,57.303 292.955,58.475 291.588 C 58.764 291.251,59.262 290.474,59.582 289.861 C 60.342 288.405,65.827 283.200,66.601 283.200 C 66.931 283.200,67.200 283.025,67.200 282.810 C 67.200 282.596,67.785 282.125,68.500 281.763 C 69.215 281.402,70.160 280.791,70.600 280.406 C 71.040 280.020,71.940 279.577,72.600 279.421 C 73.260 279.265,74.089 278.877,74.442 278.559 C 74.796 278.241,76.236 277.778,77.642 277.532 C 79.049 277.285,80.642 276.794,81.183 276.441 C 82.666 275.473,94.406 275.518,96.400 276.500 C 97.170 276.879,98.777 277.373,99.972 277.598 C 101.167 277.823,102.427 278.258,102.772 278.566 C 103.378 279.106,104.357 279.342,105.589 279.246 C 105.991 279.215,105.800 278.829,104.989 278.033 C 103.232 276.307,102.155 274.841,97.439 267.747 C 94.611 263.494,92.640 260.267,91.486 258.002 C 91.093 257.231,90.337 255.790,89.806 254.800 C 89.276 253.810,88.483 252.100,88.046 251.000 C 87.608 249.900,86.589 247.470,85.782 245.600 C 84.975 243.730,84.089 241.296,83.814 240.191 C 83.539 239.086,83.040 237.646,82.705 236.991 C 82.370 236.336,81.972 235.170,81.820 234.400 C 81.668 233.630,81.206 231.920,80.794 230.600 C 80.381 229.280,79.922 227.120,79.774 225.800 C 79.625 224.480,79.255 222.793,78.952 222.051 C 76.785 216.753,76.787 183.595,78.955 178.000 C 79.253 177.230,79.618 175.520,79.766 174.200 C 80.020 171.937,80.341 170.738,82.389 164.400 C 82.851 162.970,83.508 160.819,83.848 159.620 C 84.188 158.421,84.722 157.076,85.033 156.631 C 85.345 156.186,85.600 155.570,85.600 155.261 C 85.600 152.881,94.956 135.161,98.976 129.928 C 99.429 129.338,100.250 128.199,100.800 127.396 C 101.350 126.593,102.745 124.794,103.900 123.398 C 105.055 122.002,106.000 120.676,106.000 120.453 C 106.000 119.812,105.212 119.493,104.682 119.919 C 104.417 120.133,103.570 120.438,102.800 120.598 C 102.030 120.758,101.091 121.162,100.713 121.495 C 100.320 121.841,98.436 122.305,96.313 122.579 C 94.271 122.842,92.207 123.269,91.726 123.529 C 90.640 124.114,87.226 124.142,85.741 123.577 C 85.129 123.345,82.932 122.900,80.859 122.589 C 78.785 122.277,76.787 121.750,76.418 121.416 C 76.049 121.082,75.129 120.693,74.374 120.551 C 73.618 120.409,72.640 119.986,72.200 119.611 C 71.760 119.236,70.815 118.699,70.100 118.416 C 69.385 118.134,68.800 117.749,68.800 117.562 C 68.800 117.374,68.305 116.958,67.700 116.638 C 65.090 115.255,57.600 106.945,57.600 105.433 C 57.600 105.144,57.251 104.464,56.825 103.922 C 56.398 103.380,55.925 102.411,55.773 101.768 C 55.622 101.126,55.171 100.056,54.773 99.392 C 52.833 96.157,52.700 79.843,54.590 76.959 C 54.917 76.459,55.376 75.184,55.608 74.125 C 55.841 73.066,56.277 72.013,56.577 71.784 C 57.096 71.389,57.335 70.066,57.242 68.100 C 57.178 66.738,55.200 66.808,55.200 68.172 M106.000 119.200 C 106.000 119.420,106.259 119.600,106.576 119.600 C 106.893 119.600,107.264 119.420,107.400 119.200 C 107.536 118.980,107.277 118.800,106.824 118.800 C 106.371 118.800,106.000 118.980,106.000 119.200 " stroke="none" fill="#fb763f" fill-rule="evenodd"></path><path id="path1" d="M354.788 165.743 C 354.672 165.861,353.365 166.150,351.884 166.387 C 350.404 166.623,348.609 167.172,347.896 167.607 C 347.183 168.041,346.237 168.398,345.793 168.399 C 345.349 168.399,344.323 168.850,343.514 169.400 C 342.705 169.950,341.892 170.400,341.707 170.400 C 339.774 170.400,330.549 180.662,328.763 184.800 C 328.526 185.350,327.982 186.528,327.554 187.418 C 327.126 188.308,326.442 190.918,326.034 193.218 C 325.626 195.518,325.091 197.907,324.846 198.526 C 324.601 199.145,324.396 201.665,324.391 204.126 C 324.377 210.521,323.775 217.448,322.862 221.714 C 322.429 223.742,321.888 226.300,321.662 227.400 C 320.961 230.801,319.591 235.738,318.981 237.060 C 318.662 237.754,318.400 238.523,318.400 238.769 C 318.400 239.204,316.093 245.378,315.026 247.800 C 314.735 248.460,313.821 250.530,312.996 252.400 C 312.171 254.270,311.285 256.070,311.026 256.400 C 310.768 256.730,309.870 258.342,309.030 259.982 C 308.190 261.622,307.193 263.422,306.814 263.982 C 306.435 264.542,305.613 265.810,304.987 266.800 C 302.967 269.995,299.046 275.290,296.269 278.575 C 289.952 286.049,280.715 294.949,276.000 298.106 C 275.450 298.474,274.280 299.313,273.400 299.970 C 268.025 303.985,260.231 308.631,254.600 311.178 C 253.060 311.874,251.134 312.794,250.321 313.222 C 249.507 313.650,248.650 314.000,248.416 314.000 C 248.183 314.000,247.228 314.356,246.296 314.792 C 243.967 315.880,240.374 317.120,236.801 318.070 C 235.151 318.508,233.616 319.021,233.388 319.210 C 233.161 319.399,231.180 319.856,228.987 320.225 C 226.794 320.595,224.700 321.054,224.333 321.245 C 223.716 321.567,214.520 322.659,210.431 322.897 C 208.373 323.017,207.619 324.000,209.585 324.000 C 210.273 324.000,211.682 324.450,212.715 325.000 C 213.748 325.550,214.849 326.000,215.162 326.000 C 216.576 326.000,222.746 330.097,225.824 333.080 C 230.183 337.304,232.769 341.370,234.897 347.347 L 236.198 351.000 236.177 359.000 C 236.140 373.160,229.322 384.685,217.751 390.144 C 216.624 390.676,215.590 391.293,215.452 391.515 C 215.315 391.738,214.292 392.138,213.179 392.405 C 211.460 392.818,211.174 393.018,211.278 393.745 C 211.397 394.580,211.579 394.603,219.100 394.709 L 226.800 394.817 226.800 393.809 L 226.800 392.800 232.800 392.800 L 238.800 392.800 238.800 391.800 L 238.800 390.800 243.800 390.800 L 248.800 390.800 248.800 389.800 C 248.800 388.800,248.801 388.800,252.792 388.800 C 256.699 388.800,256.790 388.779,257.032 387.817 C 257.261 386.902,257.478 386.825,260.139 386.717 C 262.760 386.610,263.011 386.524,263.128 385.700 C 263.246 384.866,263.458 384.800,266.020 384.800 C 268.635 384.800,268.798 384.746,269.036 383.800 C 269.273 382.856,269.438 382.800,272.016 382.800 C 274.541 382.800,274.754 382.733,274.872 381.900 C 274.981 381.137,275.304 380.970,277.000 380.800 C 278.696 380.630,279.019 380.463,279.128 379.700 C 279.241 378.906,279.487 378.800,281.228 378.800 C 283.065 378.800,283.200 378.731,283.200 377.800 C 283.200 376.867,283.333 376.800,285.200 376.800 C 287.067 376.800,287.200 376.733,287.200 375.800 C 287.200 374.867,287.333 374.800,289.200 374.800 C 291.067 374.800,291.200 374.733,291.200 373.800 C 291.200 372.867,291.333 372.800,293.200 372.800 C 295.067 372.800,295.200 372.733,295.200 371.800 C 295.200 370.867,295.333 370.800,297.200 370.800 C 299.067 370.800,299.200 370.733,299.200 369.800 C 299.200 368.882,299.347 368.800,300.992 368.800 C 302.571 368.800,302.815 368.681,303.036 367.800 C 303.193 367.174,303.570 366.800,304.043 366.800 C 304.584 366.800,304.800 366.514,304.800 365.800 C 304.800 364.867,304.933 364.800,306.800 364.800 C 308.667 364.800,308.800 364.733,308.800 363.800 C 308.800 362.867,308.933 362.800,310.800 362.800 C 312.667 362.800,312.800 362.733,312.800 361.800 C 312.800 361.000,313.000 360.800,313.800 360.800 C 314.600 360.800,314.800 360.600,314.800 359.800 C 314.800 359.000,315.000 358.800,315.800 358.800 C 316.600 358.800,316.800 358.600,316.800 357.800 C 316.800 356.867,316.933 356.800,318.800 356.800 C 320.667 356.800,320.800 356.733,320.800 355.800 C 320.800 355.000,321.000 354.800,321.800 354.800 C 322.600 354.800,322.800 354.600,322.800 353.800 C 322.800 353.000,323.000 352.800,323.800 352.800 C 324.600 352.800,324.800 352.600,324.800 351.800 C 324.800 351.000,325.000 350.800,325.800 350.800 C 326.600 350.800,326.800 350.600,326.800 349.800 C 326.800 348.867,326.933 348.800,328.800 348.800 C 330.667 348.800,330.800 348.733,330.800 347.800 C 330.800 347.000,331.000 346.800,331.800 346.800 C 332.600 346.800,332.800 346.600,332.800 345.800 C 332.800 345.000,333.000 344.800,333.800 344.800 C 334.600 344.800,334.800 344.600,334.800 343.800 C 334.800 343.000,335.000 342.800,335.800 342.800 C 336.600 342.800,336.800 342.600,336.800 341.800 C 336.800 341.000,337.000 340.800,337.800 340.800 C 338.600 340.800,338.800 340.600,338.800 339.800 C 338.800 339.000,339.000 338.800,339.800 338.800 C 340.600 338.800,340.800 338.600,340.800 337.800 C 340.800 337.000,341.000 336.800,341.800 336.800 C 342.600 336.800,342.800 336.600,342.800 335.800 C 342.800 335.000,343.000 334.800,343.800 334.800 C 344.600 334.800,344.800 334.600,344.800 333.800 C 344.800 333.000,345.000 332.800,345.800 332.800 C 346.600 332.800,346.800 332.600,346.800 331.800 C 346.800 331.000,347.000 330.800,347.800 330.800 C 348.600 330.800,348.800 330.600,348.800 329.800 C 348.800 329.000,349.000 328.800,349.800 328.800 C 350.733 328.800,350.800 328.667,350.800 326.800 C 350.800 324.933,350.867 324.800,351.800 324.800 C 352.600 324.800,352.800 324.600,352.800 323.800 C 352.800 323.000,353.000 322.800,353.800 322.800 C 354.600 322.800,354.800 322.600,354.800 321.800 C 354.800 321.000,355.000 320.800,355.800 320.800 C 356.600 320.800,356.800 320.600,356.800 319.800 C 356.800 319.000,357.000 318.800,357.800 318.800 C 358.733 318.800,358.800 318.667,358.800 316.800 C 358.800 314.933,358.867 314.800,359.800 314.800 C 360.600 314.800,360.800 314.600,360.800 313.800 C 360.800 313.000,361.000 312.800,361.800 312.800 C 362.733 312.800,362.800 312.667,362.800 310.800 C 362.800 308.933,362.867 308.800,363.800 308.800 C 364.600 308.800,364.800 308.600,364.800 307.800 C 364.800 307.000,365.000 306.800,365.800 306.800 C 366.733 306.800,366.800 306.667,366.800 304.800 C 366.800 302.933,366.867 302.800,367.800 302.800 C 368.600 302.800,368.800 302.600,368.800 301.800 C 368.800 301.000,369.000 300.800,369.800 300.800 C 370.733 300.800,370.800 300.667,370.800 298.800 C 370.800 296.933,370.867 296.800,371.800 296.800 C 372.733 296.800,372.800 296.667,372.800 294.800 C 372.800 292.933,372.867 292.800,373.800 292.800 C 374.733 292.800,374.800 292.667,374.800 290.800 C 374.800 288.933,374.867 288.800,375.800 288.800 C 376.733 288.800,376.800 288.667,376.800 286.800 C 376.800 284.933,376.867 284.800,377.800 284.800 C 378.733 284.800,378.800 284.667,378.800 282.800 C 378.800 280.933,378.867 280.800,379.800 280.800 C 380.733 280.800,380.800 280.667,380.800 278.800 C 380.800 276.933,380.867 276.800,381.800 276.800 C 382.778 276.800,382.800 276.733,382.800 273.800 C 382.800 270.867,382.822 270.800,383.800 270.800 C 384.733 270.800,384.800 270.667,384.800 268.800 C 384.800 266.933,384.867 266.800,385.800 266.800 C 386.778 266.800,386.800 266.733,386.800 263.800 C 386.800 260.867,386.822 260.800,387.800 260.800 L 388.800 260.800 388.800 256.800 L 388.800 252.800 389.800 252.800 L 390.800 252.800 390.800 248.800 L 390.800 244.800 391.800 244.800 L 392.800 244.800 392.800 240.800 L 392.800 236.800 393.800 236.800 L 394.800 236.800 394.800 228.800 L 394.800 220.800 395.800 220.800 L 396.800 220.800 396.800 207.157 L 396.800 193.513 395.851 193.752 C 394.992 193.967,394.856 193.808,394.427 192.095 C 394.167 191.053,393.697 189.750,393.384 189.200 C 393.071 188.650,392.533 187.570,392.190 186.800 C 389.616 181.028,389.290 180.557,384.583 175.832 C 380.480 171.713,378.948 170.400,378.241 170.400 C 377.972 170.400,377.378 170.053,376.922 169.628 C 376.466 169.203,375.308 168.649,374.347 168.395 C 373.386 168.142,372.173 167.661,371.651 167.326 C 370.005 166.270,355.608 164.919,354.788 165.743 " stroke="none" fill="#045473" fill-rule="evenodd"></path><path id="path2" d="M284.550 114.500 C 284.680 116.975,284.901 120.972,285.041 123.383 C 285.191 125.949,285.118 128.851,284.866 130.383 C 284.629 131.822,284.257 136.162,284.040 140.027 C 283.823 143.892,283.375 148.212,283.043 149.627 C 282.712 151.042,282.166 153.820,281.829 155.800 C 278.751 173.918,269.686 195.876,258.297 212.800 C 253.391 220.092,249.240 225.435,244.199 230.949 C 233.937 242.176,216.526 256.724,209.600 259.859 C 209.270 260.008,208.460 260.506,207.800 260.964 C 206.347 261.974,204.674 262.931,202.800 263.824 C 202.030 264.191,200.950 264.807,200.400 265.193 C 199.850 265.579,198.950 266.032,198.400 266.200 C 197.850 266.368,196.950 266.818,196.400 267.200 C 195.850 267.582,194.950 268.032,194.400 268.200 C 193.850 268.368,192.922 268.841,192.338 269.252 C 191.754 269.664,191.027 270.000,190.723 270.000 C 190.418 270.000,189.456 270.369,188.585 270.819 C 187.064 271.605,185.169 272.350,180.400 274.037 C 179.190 274.465,177.633 275.082,176.940 275.407 C 176.246 275.733,175.398 276.000,175.055 276.000 C 174.711 276.000,173.478 276.352,172.315 276.782 C 171.152 277.211,168.867 277.862,167.239 278.227 C 165.610 278.593,163.720 279.118,163.039 279.395 C 162.357 279.672,160.671 280.021,159.291 280.170 C 157.911 280.320,156.088 280.687,155.240 280.986 C 154.391 281.285,152.640 281.648,151.348 281.792 C 150.057 281.935,146.038 282.420,142.417 282.868 C 135.747 283.693,112.722 283.794,110.000 283.010 L 109.000 282.722 110.034 283.461 C 110.602 283.867,112.049 285.190,113.248 286.400 C 114.448 287.610,116.848 289.860,118.582 291.400 C 120.316 292.940,122.181 294.605,122.726 295.100 C 123.271 295.595,123.837 296.000,123.983 296.000 C 124.129 296.000,124.599 296.315,125.026 296.700 C 125.453 297.085,126.882 298.210,128.200 299.200 C 129.518 300.190,130.778 301.140,130.998 301.311 C 131.486 301.687,136.628 304.913,139.800 306.832 C 144.349 309.584,154.244 314.101,159.600 315.871 C 160.590 316.198,162.140 316.811,163.044 317.233 C 163.948 317.655,165.079 318.000,165.556 318.000 C 166.034 318.000,167.513 318.366,168.843 318.814 C 170.172 319.262,172.822 319.896,174.730 320.222 C 176.639 320.549,178.740 321.008,179.400 321.243 C 182.082 322.196,207.847 323.913,208.573 323.187 C 208.786 322.974,209.807 322.800,210.842 322.800 C 213.568 322.800,223.564 321.646,224.340 321.241 C 224.703 321.052,226.794 320.595,228.987 320.225 C 231.180 319.856,233.161 319.399,233.388 319.210 C 233.616 319.021,235.151 318.508,236.801 318.070 C 240.374 317.120,243.967 315.880,246.296 314.792 C 247.228 314.356,248.183 314.000,248.416 314.000 C 248.650 314.000,249.507 313.650,250.321 313.222 C 251.134 312.794,253.060 311.874,254.600 311.178 C 260.231 308.631,268.025 303.985,273.400 299.970 C 274.280 299.313,275.450 298.474,276.000 298.106 C 280.715 294.949,289.952 286.049,296.269 278.575 C 299.046 275.290,302.967 269.995,304.987 266.800 C 305.613 265.810,306.435 264.542,306.814 263.982 C 307.193 263.422,308.190 261.622,309.030 259.982 C 309.870 258.342,310.768 256.730,311.026 256.400 C 311.285 256.070,312.171 254.270,312.996 252.400 C 313.821 250.530,314.735 248.460,315.026 247.800 C 316.093 245.378,318.400 239.204,318.400 238.769 C 318.400 238.523,318.662 237.754,318.981 237.060 C 319.591 235.738,320.961 230.801,321.662 227.400 C 321.888 226.300,322.429 223.742,322.862 221.714 C 323.775 217.448,324.377 210.521,324.391 204.126 C 324.396 201.665,324.601 199.145,324.846 198.526 C 325.091 197.907,325.626 195.518,326.034 193.218 C 326.442 190.918,327.126 188.308,327.554 187.418 C 327.982 186.528,328.526 185.350,328.763 184.800 C 330.549 180.662,339.774 170.400,341.707 170.400 C 341.892 170.400,342.705 169.950,343.514 169.400 C 344.323 168.850,345.349 168.399,345.793 168.399 C 346.237 168.398,347.183 168.041,347.896 167.607 C 351.661 165.311,368.211 165.120,371.659 167.331 C 372.177 167.663,373.386 168.142,374.347 168.395 C 375.308 168.649,376.466 169.203,376.922 169.628 C 377.378 170.053,377.972 170.400,378.241 170.400 C 379.061 170.400,386.566 177.378,388.766 180.185 C 389.531 181.162,391.997 186.090,391.999 186.646 C 391.999 186.891,392.368 187.560,392.818 188.132 C 393.268 188.705,393.906 190.206,394.235 191.470 C 394.944 194.194,394.819 194.025,395.917 193.737 C 397.159 193.413,397.105 192.000,395.851 192.000 C 395.000 192.000,394.881 191.786,394.702 189.925 C 394.570 188.550,394.246 187.640,393.741 187.225 C 393.321 186.881,392.749 185.830,392.470 184.889 C 391.503 181.637,385.484 174.221,381.600 171.499 C 378.438 169.283,376.181 167.915,374.876 167.424 C 368.312 164.952,366.418 164.597,360.000 164.630 C 354.262 164.660,348.511 165.576,347.122 166.681 C 346.835 166.909,345.908 167.319,345.062 167.591 C 339.658 169.333,329.336 179.394,327.811 184.405 C 327.645 184.952,327.137 186.013,326.683 186.763 C 326.229 187.512,325.647 189.042,325.389 190.163 L 324.922 192.200 324.660 190.600 C 324.517 189.720,324.216 186.979,323.993 184.509 C 323.769 182.038,323.409 179.551,323.193 178.981 C 322.976 178.411,322.611 176.652,322.382 175.072 C 322.154 173.492,321.712 171.480,321.402 170.600 C 321.092 169.720,320.555 167.752,320.208 166.228 C 319.862 164.703,319.420 163.263,319.226 163.028 C 319.032 162.792,318.604 161.610,318.274 160.400 C 317.581 157.857,316.590 155.371,313.171 147.600 C 312.445 145.950,311.650 144.330,311.404 144.000 C 311.158 143.670,310.363 142.230,309.636 140.800 C 305.217 132.098,298.108 122.618,289.166 113.501 C 284.491 108.735,284.250 108.787,284.550 114.500 M87.300 276.691 C 88.125 276.778,89.475 276.778,90.300 276.691 C 91.125 276.605,90.450 276.534,88.800 276.534 C 87.150 276.534,86.475 276.605,87.300 276.691 M81.800 277.389 C 80.920 277.679,80.560 277.921,81.000 277.927 C 81.440 277.933,82.520 277.701,83.400 277.411 C 84.280 277.121,84.640 276.879,84.200 276.873 C 83.760 276.867,82.680 277.099,81.800 277.389 M92.400 277.165 C 92.730 277.347,93.990 277.599,95.200 277.725 C 96.730 277.885,97.035 277.853,96.200 277.619 C 94.353 277.103,91.715 276.788,92.400 277.165 M70.418 281.450 C 69.658 281.989,68.938 282.538,68.818 282.670 C 68.424 283.102,70.580 281.897,71.554 281.140 C 72.956 280.052,72.032 280.304,70.418 281.450 M64.623 286.047 C 62.737 287.833,60.627 290.038,59.935 290.947 C 59.243 291.856,59.791 291.393,61.153 289.918 C 62.516 288.443,64.749 286.239,66.115 285.020 C 67.482 283.801,68.477 282.803,68.327 282.802 C 68.176 282.801,66.510 284.261,64.623 286.047 M57.686 294.412 C 57.240 295.313,57.120 295.833,57.413 295.589 C 57.898 295.187,58.932 292.800,58.621 292.800 C 58.545 292.800,58.125 293.526,57.686 294.412 M55.298 299.330 C 54.072 302.140,54.183 302.709,55.447 300.097 C 56.006 298.940,56.405 297.828,56.332 297.627 C 56.259 297.425,55.794 298.192,55.298 299.330 M53.454 306.656 C 53.134 308.993,53.193 317.095,53.540 318.317 C 53.683 318.822,53.800 315.987,53.800 312.017 C 53.800 303.971,53.807 304.082,53.454 306.656 M54.813 323.820 C 54.806 324.051,54.963 324.411,55.161 324.620 C 55.360 324.829,55.609 325.360,55.715 325.800 C 55.903 326.580,55.908 326.580,55.954 325.776 C 55.979 325.324,55.736 324.604,55.413 324.176 C 55.090 323.749,54.820 323.589,54.813 323.820 M55.943 328.000 C 55.813 328.770,55.791 329.625,55.896 329.900 C 56.201 330.704,57.200 330.475,57.200 329.600 C 57.200 329.160,57.032 328.800,56.827 328.800 C 56.621 328.800,56.392 328.305,56.317 327.700 C 56.190 326.671,56.166 326.690,55.943 328.000 " stroke="none" fill="#6bbb4c" fill-rule="evenodd"></path><path id="path3" d="M171.200 6.189 L 171.200 7.178 165.500 7.289 C 160.024 7.396,159.785 7.435,159.405 8.300 C 159.034 9.145,158.771 9.200,155.105 9.200 C 151.222 9.200,151.200 9.206,151.200 10.185 C 151.200 11.152,151.134 11.172,147.500 11.285 C 144.123 11.390,143.766 11.477,143.412 12.284 C 143.078 13.046,142.664 13.183,140.412 13.284 C 138.160 13.384,137.746 13.522,137.412 14.284 C 137.078 15.046,136.664 15.183,134.412 15.284 C 132.145 15.385,131.748 15.519,131.405 16.300 C 131.075 17.052,130.697 17.200,129.105 17.200 C 127.349 17.200,127.200 17.277,127.200 18.182 C 127.200 19.115,127.068 19.169,124.500 19.282 C 122.143 19.385,121.750 19.514,121.405 20.300 C 121.075 21.052,120.697 21.200,119.105 21.200 C 117.351 21.200,117.200 21.278,117.200 22.178 C 117.200 23.061,117.015 23.168,115.300 23.278 C 113.693 23.381,113.381 23.536,113.275 24.279 C 113.169 25.021,112.856 25.177,111.275 25.279 C 109.694 25.381,109.380 25.538,109.275 26.278 C 109.173 26.999,108.849 27.178,107.475 27.278 C 106.188 27.372,105.709 27.608,105.405 28.300 C 105.055 29.098,104.230 29.369,102.400 29.286 C 102.093 29.272,101.180 30.345,101.204 30.692 C 101.215 30.861,100.769 31.057,100.212 31.127 C 99.441 31.223,99.200 31.485,99.200 32.227 C 99.200 33.128,99.052 33.200,97.200 33.200 C 95.333 33.200,95.200 33.267,95.200 34.200 C 95.200 35.044,95.013 35.200,94.000 35.200 C 92.230 35.200,91.197 35.730,91.338 36.565 C 91.372 36.765,90.950 37.042,90.400 37.181 C 89.776 37.338,89.352 37.765,89.272 38.316 C 89.180 38.950,88.870 39.200,88.172 39.200 C 87.408 39.200,87.200 39.409,87.200 40.177 C 87.200 41.040,87.002 41.168,85.500 41.277 C 84.187 41.372,83.710 41.605,83.405 42.300 C 83.163 42.852,82.660 43.200,82.105 43.200 C 81.406 43.200,81.200 43.428,81.200 44.200 C 81.200 45.000,81.000 45.200,80.200 45.200 C 79.400 45.200,79.200 45.400,79.200 46.200 C 79.200 47.076,77.381 47.729,76.690 47.100 C 76.466 46.896,75.279 48.214,75.338 48.600 C 75.372 48.820,74.905 49.057,74.300 49.127 C 73.446 49.225,73.200 49.465,73.200 50.199 C 73.200 50.875,72.943 51.181,72.300 51.272 C 71.722 51.354,71.354 51.722,71.272 52.300 C 71.180 52.951,70.876 53.200,70.172 53.200 C 69.402 53.200,69.200 53.408,69.200 54.200 C 69.200 55.000,69.000 55.200,68.200 55.200 C 67.400 55.200,67.200 55.400,67.200 56.200 C 67.200 57.000,67.000 57.200,66.200 57.200 C 65.400 57.200,65.200 57.400,65.200 58.200 C 65.200 59.000,65.000 59.200,64.200 59.200 C 63.400 59.200,63.200 59.400,63.200 60.200 C 63.200 61.000,63.000 61.200,62.200 61.200 C 61.400 61.200,61.200 61.400,61.200 62.200 C 61.200 63.000,61.000 63.200,60.200 63.200 C 59.408 63.200,59.200 63.402,59.200 64.172 C 59.200 64.876,58.951 65.180,58.300 65.272 C 57.469 65.390,57.394 65.625,57.318 68.342 C 57.261 70.420,57.059 71.420,56.634 71.742 C 56.303 71.994,55.841 73.066,55.608 74.125 C 55.376 75.184,54.917 76.459,54.590 76.959 C 52.700 79.843,52.833 96.157,54.773 99.392 C 55.171 100.056,55.622 101.126,55.773 101.768 C 55.925 102.411,56.398 103.380,56.825 103.922 C 57.251 104.464,57.600 105.144,57.600 105.433 C 57.600 106.945,65.090 115.255,67.700 116.638 C 68.305 116.958,68.800 117.374,68.800 117.562 C 68.800 117.749,69.385 118.134,70.100 118.416 C 70.815 118.699,71.760 119.236,72.200 119.611 C 72.640 119.986,73.618 120.409,74.374 120.551 C 75.129 120.693,76.049 121.082,76.418 121.416 C 76.787 121.750,78.785 122.277,80.859 122.589 C 82.932 122.900,85.129 123.345,85.741 123.577 C 87.226 124.142,90.640 124.114,91.726 123.529 C 92.207 123.269,94.271 122.842,96.313 122.579 C 98.436 122.305,100.320 121.841,100.713 121.495 C 101.091 121.162,102.030 120.758,102.800 120.598 C 103.570 120.438,104.417 120.133,104.682 119.919 C 105.212 119.493,106.000 119.812,106.000 120.453 C 106.000 120.676,105.055 122.002,103.900 123.398 C 102.745 124.794,101.350 126.593,100.800 127.396 C 100.250 128.199,99.429 129.338,98.976 129.928 C 94.956 135.161,85.600 152.881,85.600 155.261 C 85.600 155.570,85.345 156.186,85.033 156.631 C 84.722 157.076,84.188 158.421,83.848 159.620 C 83.508 160.819,82.851 162.970,82.389 164.400 C 80.340 170.741,80.020 171.937,79.769 174.200 C 79.623 175.520,79.258 177.200,78.958 177.933 C 78.658 178.666,78.325 180.736,78.217 182.533 L 78.022 185.800 78.565 182.400 C 78.864 180.530,79.284 178.550,79.499 178.000 C 79.713 177.450,80.016 175.838,80.173 174.417 C 80.330 172.997,80.699 171.259,80.993 170.555 C 81.287 169.851,81.744 168.224,82.009 166.938 C 82.274 165.652,82.766 164.064,83.103 163.409 C 83.439 162.754,83.939 161.314,84.214 160.209 C 84.489 159.104,85.377 156.670,86.187 154.800 C 86.997 152.930,87.900 150.770,88.192 150.000 C 89.217 147.300,91.211 143.430,94.024 138.674 C 94.781 137.395,95.580 136.039,95.800 135.661 C 96.647 134.204,100.990 127.742,101.889 126.600 C 102.409 125.940,103.141 124.986,103.517 124.481 C 110.586 114.965,125.057 102.416,139.007 93.705 C 140.657 92.675,154.389 85.999,154.883 85.987 C 155.167 85.981,156.300 85.532,157.400 84.991 C 158.500 84.450,159.722 84.006,160.116 84.004 C 160.510 84.002,161.528 83.645,162.379 83.211 C 163.230 82.776,164.708 82.301,165.663 82.154 C 166.618 82.007,168.221 81.568,169.224 81.179 C 170.226 80.790,171.936 80.348,173.024 80.197 C 174.111 80.045,176.371 79.582,178.047 79.166 C 179.723 78.750,183.323 78.225,186.047 77.999 C 188.771 77.772,192.260 77.417,193.800 77.208 C 195.340 76.999,199.176 76.741,202.325 76.635 C 207.892 76.447,208.102 76.408,209.894 75.221 C 210.908 74.549,212.111 73.995,212.569 73.990 C 213.026 73.984,214.675 73.309,216.232 72.490 C 233.919 63.187,240.861 43.190,232.291 26.235 C 228.811 19.351,221.020 11.682,216.000 10.201 C 215.450 10.038,214.689 9.632,214.308 9.298 C 213.928 8.964,212.488 8.397,211.108 8.038 C 208.867 7.453,208.587 7.268,208.473 6.292 L 208.347 5.200 189.773 5.200 L 171.200 5.200 171.200 6.189 M107.400 119.200 C 107.264 119.420,106.893 119.600,106.576 119.600 C 106.259 119.600,106.000 119.420,106.000 119.200 C 106.000 118.980,106.371 118.800,106.824 118.800 C 107.277 118.800,107.536 118.980,107.400 119.200 M77.462 189.700 C 77.129 193.974,77.209 207.849,77.586 211.200 C 77.761 212.759,77.902 208.314,77.939 200.100 C 78.002 186.018,77.908 183.970,77.462 189.700 M78.203 217.623 C 78.298 219.286,78.630 221.266,78.940 222.023 C 79.250 222.781,79.625 224.480,79.774 225.800 C 79.922 227.120,80.381 229.280,80.794 230.600 C 81.206 231.920,81.668 233.630,81.820 234.400 C 81.972 235.170,82.370 236.336,82.705 236.991 C 83.040 237.646,83.539 239.086,83.814 240.191 C 84.089 241.296,84.975 243.730,85.782 245.600 C 86.589 247.470,87.608 249.900,88.046 251.000 C 88.483 252.100,89.276 253.810,89.806 254.800 C 90.337 255.790,91.093 257.231,91.486 258.002 C 92.640 260.267,94.611 263.494,97.439 267.747 C 102.155 274.841,103.232 276.307,104.989 278.033 C 105.800 278.829,105.991 279.215,105.589 279.246 C 104.357 279.342,103.378 279.106,102.772 278.566 C 102.427 278.258,101.167 277.823,99.972 277.598 C 98.777 277.373,97.170 276.879,96.400 276.500 C 94.406 275.518,82.666 275.473,81.183 276.441 C 80.642 276.794,79.049 277.285,77.642 277.532 C 76.236 277.778,74.796 278.241,74.442 278.559 C 74.089 278.877,73.260 279.265,72.600 279.421 C 71.940 279.577,71.040 280.020,70.600 280.406 C 70.160 280.791,69.215 281.402,68.500 281.763 C 67.785 282.125,67.200 282.596,67.200 282.810 C 67.200 283.025,66.931 283.200,66.601 283.200 C 65.827 283.200,60.342 288.405,59.582 289.861 C 59.262 290.474,58.764 291.251,58.475 291.588 C 57.303 292.955,55.861 295.482,55.502 296.800 C 55.292 297.570,54.862 298.491,54.547 298.847 C 54.231 299.202,53.798 300.577,53.585 301.901 C 53.372 303.225,52.928 304.954,52.599 305.742 C 51.743 307.789,51.762 316.934,52.625 318.588 C 52.965 319.242,53.399 321.011,53.589 322.520 C 53.778 324.029,54.205 325.564,54.537 325.931 C 54.932 326.368,55.186 327.641,55.271 329.600 C 55.390 332.361,55.472 332.610,56.300 332.728 C 57.066 332.837,57.200 332.672,57.200 331.628 C 57.200 330.803,57.003 330.400,56.600 330.400 C 56.270 330.400,55.986 330.265,55.970 330.100 C 55.953 329.935,55.896 328.778,55.842 327.528 C 55.788 326.278,55.530 324.998,55.268 324.682 C 53.471 322.517,52.667 311.146,53.848 304.600 C 55.591 294.937,65.285 282.678,73.267 280.044 C 74.036 279.790,75.364 279.226,76.217 278.791 C 77.071 278.356,78.226 277.998,78.785 277.996 C 79.343 277.993,80.675 277.726,81.745 277.401 C 84.618 276.530,89.686 276.205,92.120 276.736 C 93.264 276.986,95.640 277.488,97.400 277.852 C 99.160 278.216,102.130 279.254,104.000 280.157 C 105.870 281.061,107.535 281.860,107.700 281.933 C 108.466 282.274,107.846 281.042,106.282 279.116 C 103.010 275.087,100.576 271.784,98.240 268.200 C 96.950 266.220,95.554 264.108,95.139 263.506 C 94.724 262.904,94.196 262.004,93.964 261.506 C 93.733 261.008,93.021 259.700,92.382 258.600 C 90.928 256.096,88.595 251.315,88.199 250.027 C 88.034 249.491,87.472 248.250,86.950 247.267 C 86.427 246.285,86.000 245.229,86.000 244.921 C 86.000 244.612,85.711 243.801,85.357 243.117 C 85.004 242.434,84.387 240.778,83.988 239.437 C 83.588 238.097,82.999 236.190,82.679 235.200 C 81.187 230.588,80.416 227.623,80.184 225.600 C 80.044 224.390,79.732 222.770,79.489 222.000 C 79.245 221.230,78.818 219.250,78.538 217.600 L 78.029 214.600 78.203 217.623 " stroke="none" fill="#d445d9" fill-rule="evenodd"></path><path id="path4" d="M84.103 277.198 C 83.610 277.404,81.649 277.844,79.746 278.176 C 77.842 278.508,75.996 279.030,75.643 279.336 C 75.289 279.642,74.460 280.021,73.800 280.177 C 72.614 280.459,70.456 281.721,67.458 283.886 C 65.053 285.623,59.162 291.993,58.504 293.568 C 58.178 294.348,57.571 295.419,57.156 295.947 C 56.740 296.476,56.400 297.206,56.400 297.569 C 56.400 297.933,56.027 298.944,55.571 299.815 C 53.135 304.470,52.988 320.410,55.347 324.080 C 55.672 324.586,56.062 325.855,56.214 326.900 C 56.366 327.945,56.643 328.800,56.828 328.800 C 57.013 328.800,57.218 330.105,57.282 331.700 C 57.390 334.361,57.474 334.611,58.300 334.728 C 58.951 334.820,59.200 335.124,59.200 335.828 C 59.200 336.598,59.408 336.800,60.200 336.800 C 61.000 336.800,61.200 337.000,61.200 337.800 C 61.200 338.600,61.400 338.800,62.200 338.800 C 63.000 338.800,63.200 339.000,63.200 339.800 C 63.200 340.600,63.400 340.800,64.200 340.800 C 65.000 340.800,65.200 341.000,65.200 341.800 C 65.200 342.600,65.400 342.800,66.200 342.800 C 67.000 342.800,67.200 343.000,67.200 343.800 C 67.200 344.600,67.400 344.800,68.200 344.800 C 69.000 344.800,69.200 345.000,69.200 345.800 C 69.200 346.592,69.402 346.800,70.172 346.800 C 70.876 346.800,71.180 347.049,71.272 347.700 C 71.354 348.278,71.722 348.646,72.300 348.728 C 72.951 348.820,73.200 349.124,73.200 349.828 C 73.200 350.646,73.394 350.800,74.424 350.800 C 75.097 350.800,75.546 350.964,75.422 351.164 C 75.097 351.690,75.611 352.824,76.146 352.760 C 78.255 352.507,79.200 352.829,79.200 353.800 C 79.200 354.600,79.400 354.800,80.200 354.800 C 81.000 354.800,81.200 355.000,81.200 355.800 C 81.200 356.600,81.400 356.800,82.200 356.800 C 83.000 356.800,83.200 357.000,83.200 357.800 C 83.200 358.350,83.335 358.779,83.500 358.753 C 85.633 358.416,87.200 358.859,87.200 359.800 C 87.200 360.592,87.402 360.800,88.172 360.800 C 88.875 360.800,89.180 361.049,89.272 361.697 C 89.355 362.282,89.748 362.665,90.400 362.797 C 90.950 362.909,91.418 363.225,91.440 363.500 C 91.532 364.654,91.625 364.832,92.100 364.770 C 94.215 364.495,95.200 364.823,95.200 365.800 C 95.200 366.733,95.333 366.800,97.200 366.800 C 99.067 366.800,99.200 366.867,99.200 367.800 C 99.200 368.649,99.385 368.800,100.424 368.800 C 101.097 368.800,101.546 368.964,101.422 369.164 C 101.097 369.690,101.611 370.824,102.146 370.760 C 104.255 370.507,105.200 370.829,105.200 371.800 C 105.200 372.350,105.335 372.779,105.500 372.753 C 107.453 372.444,109.155 372.872,109.272 373.700 C 109.381 374.466,109.679 374.618,111.275 374.721 C 112.856 374.823,113.169 374.979,113.275 375.721 C 113.381 376.464,113.693 376.619,115.300 376.722 C 117.015 376.832,117.200 376.939,117.200 377.822 C 117.200 378.729,117.345 378.800,119.200 378.800 C 121.067 378.800,121.200 378.867,121.200 379.800 C 121.200 380.350,121.335 380.779,121.500 380.753 C 124.217 380.324,127.200 380.872,127.200 381.800 C 127.200 382.733,127.333 382.800,129.200 382.800 C 131.067 382.800,131.200 382.867,131.200 383.800 C 131.200 384.350,131.335 384.779,131.500 384.753 C 134.217 384.324,137.200 384.872,137.200 385.800 C 137.200 386.350,137.335 386.779,137.500 386.753 C 140.217 386.324,143.200 386.872,143.200 387.800 C 143.200 388.350,143.335 388.779,143.500 388.753 C 146.617 388.261,151.200 388.884,151.200 389.800 L 151.200 390.800 155.200 390.800 C 159.200 390.800,159.200 390.800,159.200 391.800 C 159.200 392.350,159.335 392.779,159.500 392.753 C 159.665 392.727,162.365 392.727,165.500 392.753 L 171.200 392.800 171.200 393.800 L 171.200 394.800 191.345 394.800 L 211.489 394.800 211.307 393.849 C 211.144 392.993,211.330 392.849,213.164 392.409 C 214.285 392.140,215.315 391.738,215.452 391.515 C 215.590 391.293,216.624 390.676,217.751 390.144 C 225.015 386.717,231.306 379.403,234.905 370.200 C 236.155 367.003,236.156 366.991,236.177 359.000 L 236.198 351.000 234.897 347.347 C 232.769 341.370,230.183 337.304,225.824 333.080 C 222.746 330.097,216.576 326.000,215.162 326.000 C 214.849 326.000,213.785 325.576,212.797 325.057 C 210.598 323.904,208.886 323.650,200.200 323.189 C 190.871 322.695,180.846 321.757,179.400 321.243 C 178.740 321.008,176.639 320.549,174.730 320.222 C 172.822 319.896,170.172 319.262,168.843 318.814 C 167.513 318.366,166.034 318.000,165.556 318.000 C 165.079 318.000,163.948 317.655,163.044 317.233 C 162.140 316.811,160.590 316.198,159.600 315.871 C 154.244 314.101,144.349 309.584,139.800 306.832 C 136.628 304.913,131.486 301.687,130.998 301.311 C 130.778 301.140,129.518 300.190,128.200 299.200 C 126.882 298.210,125.453 297.085,125.026 296.700 C 124.599 296.315,124.129 296.000,123.983 296.000 C 123.837 296.000,123.271 295.595,122.726 295.100 C 122.181 294.605,120.314 292.940,118.577 291.400 C 116.841 289.860,114.425 287.608,113.210 286.395 C 110.732 283.924,108.280 282.000,107.606 282.000 C 107.360 282.000,106.493 281.647,105.679 281.215 C 102.194 279.366,99.567 278.436,96.000 277.789 C 91.514 276.975,85.370 276.670,84.103 277.198 " stroke="none" fill="#04bbeb" fill-rule="evenodd"></path><path id="path5" d="M199.200 76.791 C 196.010 76.948,192.950 77.189,192.400 77.328 C 191.850 77.466,189.087 77.764,186.261 77.991 C 183.434 78.218,179.744 78.745,178.061 79.162 C 176.377 79.580,174.111 80.045,173.024 80.197 C 171.936 80.348,170.226 80.790,169.224 81.179 C 168.221 81.568,166.618 82.007,165.663 82.154 C 164.708 82.301,163.230 82.776,162.379 83.211 C 161.528 83.645,160.510 84.002,160.116 84.004 C 159.722 84.006,158.500 84.450,157.400 84.991 C 156.300 85.532,155.167 85.981,154.883 85.987 C 154.389 85.999,140.657 92.675,139.007 93.705 C 128.102 100.514,121.817 105.451,113.423 113.800 C 107.165 120.025,105.468 121.855,103.517 124.481 C 103.141 124.986,102.409 125.940,101.889 126.600 C 100.990 127.742,96.647 134.204,95.800 135.661 C 95.580 136.039,94.781 137.395,94.024 138.674 C 91.211 143.430,89.217 147.300,88.192 150.000 C 87.900 150.770,86.997 152.930,86.187 154.800 C 85.377 156.670,84.489 159.104,84.214 160.209 C 83.939 161.314,83.439 162.754,83.103 163.409 C 82.766 164.064,82.274 165.652,82.009 166.938 C 81.744 168.224,81.291 169.844,81.003 170.538 C 80.714 171.232,80.356 172.880,80.208 174.200 C 80.059 175.520,79.694 177.410,79.397 178.400 C 77.334 185.264,77.433 215.854,79.538 222.200 C 79.757 222.860,80.049 224.390,80.187 225.600 C 80.417 227.622,81.184 230.579,82.679 235.200 C 82.999 236.190,83.588 238.097,83.988 239.437 C 84.387 240.778,85.004 242.434,85.357 243.117 C 85.711 243.801,86.000 244.612,86.000 244.921 C 86.000 245.229,86.427 246.285,86.950 247.267 C 87.472 248.250,88.034 249.491,88.199 250.027 C 88.595 251.315,90.928 256.096,92.382 258.600 C 93.021 259.700,93.733 261.008,93.964 261.506 C 94.196 262.004,94.724 262.904,95.139 263.506 C 95.554 264.108,96.950 266.220,98.240 268.200 C 100.425 271.551,102.126 273.880,106.182 279.071 C 107.072 280.210,108.070 281.519,108.400 281.978 C 109.591 283.639,131.393 284.330,141.086 283.015 C 143.459 282.693,147.249 282.233,149.510 281.994 C 151.770 281.754,154.331 281.307,155.201 281.000 C 156.071 280.693,157.911 280.320,159.291 280.170 C 160.671 280.021,162.357 279.672,163.039 279.395 C 163.720 279.118,165.610 278.593,167.239 278.227 C 168.867 277.862,171.152 277.211,172.315 276.782 C 173.478 276.352,174.711 276.000,175.055 276.000 C 175.398 276.000,176.246 275.733,176.940 275.407 C 177.633 275.082,179.190 274.465,180.400 274.037 C 185.169 272.350,187.064 271.605,188.585 270.819 C 189.456 270.369,190.418 270.000,190.723 270.000 C 191.027 270.000,191.754 269.664,192.338 269.252 C 192.922 268.841,193.850 268.368,194.400 268.200 C 194.950 268.032,195.850 267.582,196.400 267.200 C 196.950 266.818,197.850 266.368,198.400 266.200 C 198.950 266.032,199.850 265.579,200.400 265.193 C 200.950 264.807,202.030 264.191,202.800 263.824 C 204.674 262.931,206.347 261.974,207.800 260.964 C 208.460 260.506,209.270 260.008,209.600 259.859 C 212.273 258.649,222.641 251.129,228.754 245.965 C 235.425 240.331,245.944 229.548,250.134 224.049 C 254.550 218.252,255.621 216.778,258.297 212.800 C 269.686 195.876,278.751 173.918,281.829 155.800 C 282.166 153.820,282.712 151.042,283.043 149.627 C 283.375 148.212,283.823 143.892,284.040 140.027 C 284.257 136.162,284.629 131.822,284.866 130.383 C 285.114 128.874,285.192 125.954,285.048 123.483 C 284.912 121.127,284.703 117.265,284.584 114.900 C 284.265 108.569,283.975 108.003,279.244 104.480 C 278.450 103.889,277.710 103.313,277.600 103.200 C 277.167 102.758,271.298 98.525,269.600 97.431 C 268.610 96.793,267.080 95.790,266.200 95.202 C 265.320 94.614,264.330 94.001,264.000 93.840 C 263.670 93.679,262.500 93.029,261.400 92.395 C 259.556 91.333,254.869 88.979,251.000 87.172 C 247.649 85.606,243.419 84.070,234.600 81.214 C 233.280 80.787,231.030 80.237,229.600 79.992 C 228.170 79.746,226.100 79.296,225.000 78.991 C 223.900 78.686,221.110 78.232,218.800 77.982 C 216.490 77.732,214.150 77.375,213.600 77.190 C 212.027 76.659,205.534 76.479,199.200 76.791 " stroke="none" fill="#fbfbfb" fill-rule="evenodd"></path></g></svg>